<svg width="28" height="28" viewBox="0 0 28 28" fill="none" xmlns="http://www.w3.org/2000/svg">
<path d="M11.5406 23.0605C5.18281 23.0605 0.010376 17.888 0.010376 11.5302C0.010376 5.17243 5.18281 0 11.5406 0C17.8984 0 23.0708 5.17243 23.0708 11.5302C23.0708 17.888 17.8984 23.0605 11.5406 23.0605ZM11.5406 2.18583C6.38807 2.18583 2.1962 6.3777 2.1962 11.5302C2.1962 16.6828 6.38807 20.8746 11.5406 20.8746C16.6931 20.8746 20.885 16.6828 20.885 11.5302C20.885 6.3777 16.6931 2.18583 11.5406 2.18583ZM27.6689 27.6799C28.0957 27.253 28.0957 26.561 27.6689 26.1342L22.7781 21.2434C22.3513 20.8166 21.6592 20.8166 21.2325 21.2434C20.8057 21.6703 20.8057 22.3623 21.2325 22.7891L26.1232 27.6799C26.3366 27.8933 26.6164 27.9999 26.8961 27.9999C27.1758 27.9999 27.4554 27.8933 27.6689 27.6799Z" fill="#225350"/>
</svg>
