<svg width="22" height="30" viewBox="0 0 22 30" fill="none" xmlns="http://www.w3.org/2000/svg">
<path d="M18.6408 26.8661H2.91264V21.9147C2.91616 19.503 4.86991 17.5493 7.28157 17.5458H13.0078H13.299C18.0827 17.5656 21.9775 13.704 21.9973 8.91976C22.0171 4.13546 18.1555 0.241907 13.3713 0.221516C8.58703 0.201125 4.69342 4.0638 4.67303 8.84751C4.6643 10.979 5.44137 13.0388 6.85635 14.6331C3.00293 14.8615 -0.00351254 18.0549 3.08011e-06 21.9147V28.3224C3.08011e-06 29.1269 0.651859 29.7787 1.45629 29.7787H18.6408C19.4453 29.7787 20.0971 29.1269 20.0971 28.3224C20.0971 27.518 19.4453 26.8661 18.6408 26.8661ZM13.299 3.21566C16.454 3.30595 18.9384 5.93605 18.8481 9.09097C18.7637 12.056 16.4237 14.4636 13.4622 14.6331H13.0078C9.85805 14.4351 7.46502 11.7211 7.66307 8.57136C7.85069 5.58595 10.3083 3.25064 13.299 3.21566Z" fill="#225350"/>
</svg>
